<svg width="18" height="18" viewBox="0 0 18 18" fill="none" xmlns="http://www.w3.org/2000/svg">
<path d="M15.75 3.09375H2.25C1.87761 3.0956 1.521 3.24435 1.25767 3.50767C0.99435 3.771 0.845598 4.12761 0.84375 4.5V13.493C0.845598 13.8654 0.99435 14.222 1.25767 14.4853C1.521 14.7486 1.87761 14.8974 2.25 14.8992H15.75C16.1224 14.8974 16.479 14.7486 16.7423 14.4853C17.0057 14.222 17.1544 13.8654 17.1562 13.493V4.5C17.1544 4.12761 17.0057 3.771 16.7423 3.50767C16.479 3.24435 16.1224 3.0956 15.75 3.09375ZM15.4688 4.78125V5.96953H2.53125V4.78125H15.4688ZM2.53125 13.2188V7.65703H15.4688V13.2188H2.53125ZM14.625 11.5312C14.625 11.755 14.5361 11.9696 14.3779 12.1279C14.2196 12.2861 14.005 12.375 13.7812 12.375H11.5312C11.3075 12.375 11.0929 12.2861 10.9346 12.1279C10.7764 11.9696 10.6875 11.755 10.6875 11.5312C10.6875 11.3075 10.7764 11.0929 10.9346 10.9346C11.0929 10.7764 11.3075 10.6875 11.5312 10.6875H13.7812C14.005 10.6875 14.2196 10.7764 14.3779 10.9346C14.5361 11.0929 14.625 11.3075 14.625 11.5312ZM9.5625 11.5312C9.5625 11.755 9.47361 11.9696 9.31537 12.1279C9.15714 12.2861 8.94253 12.375 8.71875 12.375H7.59375C7.36997 12.375 7.15536 12.2861 6.99713 12.1279C6.83889 11.9696 6.75 11.755 6.75 11.5312C6.75 11.3075 6.83889 11.0929 6.99713 10.9346C7.15536 10.7764 7.36997 10.6875 7.59375 10.6875H8.71875C8.94253 10.6875 9.15714 10.7764 9.31537 10.9346C9.47361 11.0929 9.5625 11.3075 9.5625 11.5312Z" fill="#CCCCCC"/>
</svg>
